<svg width="136" height="34" viewBox="0 0 136 34" fill="none" xmlns="http://www.w3.org/2000/svg">
<g id="firmachain_wh_logo">
<g id="Group">
<g id="Group_2">
<g id="Page-1_4_">
<g id="Group_3">
<g id="Send-Copy_12_">
<g id="FIRMA-CHAIN_12_">
<path id="Path_126_" d="M16.538 21.5164L16.0756 21.2309V16.611L18.4964 15.2873L16.538 14.1973L14.1172 15.5209V22.3209L16.538 23.6446L22.794 20.2446L20.89 19.1286L16.538 21.5164Z" fill="white"/>
<path id="Path_125_" d="M16.538 5.68408L6.36523 11.2383V22.3467L8.29643 23.4108V12.3024L16.538 7.81233L20.2644 9.83675L20.6996 7.9421L16.538 5.68408Z" fill="white"/>
<path id="Path_124_" d="M24.8067 12.3282V21.2824L16.5379 25.7725L12.1859 23.3847V14.4565L16.5379 12.0687L20.9171 14.4565L22.8755 13.3923L16.5379 9.94043L10.2275 13.3923V24.4748L16.5379 27.9007L26.7379 22.3465V11.2381L24.8067 12.3282Z" fill="white"/>
<path id="Path_123_" d="M34.3271 11.6797H42.46V13.4965H36.5575V16.5072H41.644V18.324H36.5575V22.6324H34.3271V11.6797Z" fill="white"/>
<path id="Path_122_" d="M43.8467 11.6797H46.0771V22.6324H43.8467V11.6797Z" fill="white"/>
<path id="Shape_38_" d="M57.2835 18.9988V22.6324H55.0531V19.4919L54.0739 18.4537H50.5107V22.6324H48.2803V11.6797H55.5155L57.2291 13.3667V16.6629L56.1139 17.753L57.2835 18.9988ZM50.5107 16.6888H54.4547L55.0259 16.1438V14.0156L54.4547 13.4705H50.5107V16.6888Z" fill="white"/>
<path id="Path_121_" d="M59.3506 11.6797H61.3906L64.8178 18.7392L68.2722 11.6797H70.3122V22.6324H68.1906V15.9621L65.6066 21.1011H64.1378L61.5538 15.9621V22.6324H59.3506V11.6797Z" fill="white"/>
<path id="Shape_37_" d="M75.6704 11.6797H77.7104L81.8992 22.6064H79.696L78.7712 20.1927H74.6912L73.7664 22.6064H71.5088L75.6704 11.6797ZM78.2 18.4537L76.6768 14.353L75.208 18.4537H78.2Z" fill="white"/>
<path id="Path_120_" d="M82.9336 20.8415V13.4965L84.8104 11.6797H90.4136L92.2632 13.4446V15.1056H90.06V14.2232L89.2712 13.4965H86.0072L85.1368 14.327V20.0888L86.0072 20.8934H89.2712L90.06 20.1667V19.1805H92.2632V20.8415L90.4136 22.6064H84.8104L82.9336 20.8415Z" fill="white"/>
<path id="Path_119_" d="M93.8408 11.6797H96.0712V16.2736H100.913V11.6797H103.143V22.6324H100.913V18.0644H96.0712V22.6324H93.8408V11.6797Z" fill="white"/>
<path id="Shape_36_" d="M108.474 11.6797H110.514L114.703 22.6064H112.445L111.52 20.1927H107.495L106.57 22.6064H104.312L108.474 11.6797ZM111.004 18.4537L109.48 14.353L108.012 18.4537H111.004Z" fill="white"/>
<path id="Path_118_" d="M115.927 11.6797H118.157V22.6324H115.927V11.6797Z" fill="white"/>
<path id="Path_117_" d="M120.36 11.6797H122.373L127.46 19.1026V11.6797H129.636V22.6324H127.623L122.509 15.2095V22.6324H120.36V11.6797Z" fill="white"/>
</g>
</g>
</g>
</g>
</g>
</g>
</g>
</svg>
