<svg width="22" height="24" viewBox="0 0 22 24" fill="none" xmlns="http://www.w3.org/2000/svg">
<g id="Frame 1">
<path id="Path" d="M10.9997 16.9043L10.5206 16.6322V11.8448L12.9417 10.4673L10.9997 9.36182L8.5957 10.7311V17.7465L10.9997 19.107L17.1935 15.5948L15.3114 14.4554L10.9997 16.9043Z" fill="white"/>
<path id="Path_2" d="M10.9997 0.543945L0.887695 6.28369V17.7802L2.81259 18.8688V7.39765L10.9997 2.74632L14.687 4.84667L15.1062 2.87389L10.9997 0.543945Z" fill="white"/>
<path id="Path_3" d="M19.1867 7.40622V16.6664L10.9995 21.3177L6.6622 18.8517V9.62557L10.9996 7.1596L15.337 9.61706L17.2619 8.52864V8.51161L10.9995 4.95728L4.7373 8.51167V19.9656L10.9995 23.52L21.1116 17.7803V6.30083L19.1867 7.40622Z" fill="white"/>
</g>
</svg>
