<svg width="30" height="32" viewBox="0 0 30 32" fill="none" xmlns="http://www.w3.org/2000/svg">
<g id="Frame 427321954" opacity="0.8">
<path id="Path_126_" d="M14.9806 22.8038L14.3224 22.3926V15.7384L17.7683 13.8318L14.9806 12.2617L11.5347 14.1683V23.9627L14.9806 25.8693L23.8859 20.9721L21.1756 19.3646L14.9806 22.8038Z" fill="white"/>
<path id="Path_125_" d="M14.9807 0L0.5 8.00005V24.0002L3.24901 25.5329V9.53277L14.9807 3.06544L20.2851 5.98135L20.9046 3.25236L14.9807 0Z" fill="white"/>
<path id="Path_124_" d="M26.7511 9.57013V22.4674L14.9807 28.9347L8.78578 25.4955V12.6356L14.9807 9.1963L21.2144 12.6356L24.0021 11.1029L14.9807 6.13086L5.99805 11.1029V27.0656L14.9807 32.0002L29.5002 24.0001V8.00003L26.7511 9.57013Z" fill="white"/>
</g>
</svg>
