<svg width="32" height="32" viewBox="0 0 32 32" fill="none" xmlns="http://www.w3.org/2000/svg">
<g id="book-open-02">
<path id="Icon" d="M15.9998 26.6663H6.93317C5.4397 26.6663 4.69296 26.6663 4.12253 26.3757C3.62076 26.12 3.21282 25.7121 2.95715 25.2103C2.6665 24.6399 2.6665 23.8931 2.6665 22.3997V9.59967C2.6665 8.1062 2.6665 7.35946 2.95715 6.78903C3.21282 6.28727 3.62076 5.87932 4.12253 5.62366C4.69296 5.33301 5.4397 5.33301 6.93317 5.33301H7.4665C10.4535 5.33301 11.9469 5.33301 13.0878 5.91431C14.0913 6.42563 14.9072 7.24153 15.4185 8.24506C15.9998 9.38592 15.9998 10.8794 15.9998 13.8663M15.9998 26.6663V13.8663M15.9998 26.6663H25.0665C26.56 26.6663 27.3067 26.6663 27.8771 26.3757C28.3789 26.12 28.7869 25.7121 29.0425 25.2103C29.3332 24.6399 29.3332 23.8931 29.3332 22.3997V9.59967C29.3332 8.1062 29.3332 7.35946 29.0425 6.78903C28.7869 6.28727 28.3789 5.87932 27.8771 5.62366C27.3067 5.33301 26.56 5.33301 25.0665 5.33301H24.5332C21.5462 5.33301 20.0528 5.33301 18.9119 5.91431C17.9084 6.42563 17.0925 7.24153 16.5811 8.24506C15.9998 9.38592 15.9998 10.8794 15.9998 13.8663" stroke="white" stroke-opacity="0.8" stroke-width="2.5" stroke-linecap="round" stroke-linejoin="round"/>
</g>
</svg>
