<svg width="28" height="28" viewBox="0 0 28 28" fill="none" xmlns="http://www.w3.org/2000/svg">
<path id="Vector" d="M27.6633 6.85392C28.1122 6.40486 28.1122 5.6737 27.6633 5.22463L22.7761 0.336798C22.3272 -0.112266 21.5961 -0.112266 21.1471 0.336798L18.787 2.69724C18.4705 3.01389 17.9984 3.12327 17.584 2.96783C12.8754 1.16584 7.4184 2.2597 3.7862 5.89247C-1.26207 10.9415 -1.26207 19.1628 3.7862 24.2119C6.3132 26.7392 9.62881 28 12.9444 28C16.26 28 19.5756 26.7392 22.1026 24.2119C25.7349 20.579 26.8286 15.1212 25.0268 10.4118C24.8656 9.99734 24.9807 9.52524 25.2974 9.2086L27.6633 6.85392ZM24.0023 6.44516L21.763 8.68471C21.4464 9.00134 21.3717 9.4907 21.5904 9.88219C22.2926 11.1488 22.7243 12.5248 22.874 13.9123C23.0122 15.1788 22.2121 16.3762 20.9917 16.7274C20.2721 16.9348 19.3224 17.0845 18.0905 17.0845C13.9633 17.0845 12.081 13.7395 8.42 13.7395C6.6413 13.7395 5.27707 14.1367 4.35031 14.5455C3.64228 14.8564 2.88246 14.2749 2.99758 13.5034C3.17602 12.3405 3.55594 11.2064 4.14884 10.1528C6.03689 6.78484 9.47915 5.00011 12.956 5.00011C14.6252 5.00011 16.3061 5.40887 17.8315 6.26093L18.1193 6.41637C18.5108 6.63514 19.0001 6.56607 19.3224 6.24942L21.5615 4.00987C21.7861 3.78535 22.1487 3.78535 22.3732 4.00987L24.0023 5.63915C24.2267 5.85792 24.2267 6.22063 24.0023 6.44516Z" fill="white" fill-opacity="0.8"/>
</svg>
