<svg width="25" height="24" viewBox="0 0 25 24" fill="none" xmlns="http://www.w3.org/2000/svg">
<g id="superfluid-osmo 1">
<path id="Vector" d="M22.2595 6.8949C22.5802 6.57419 22.5802 6.05201 22.2595 5.7313L18.7687 2.24053C18.448 1.91982 17.9258 1.91982 17.6051 2.24053L15.9193 3.9263C15.6932 4.15244 15.356 4.23056 15.06 4.11955C11.6967 2.83261 7.79886 3.61382 5.20443 6.20825C1.59852 9.81415 1.59852 15.6856 5.20443 19.2915C7.00943 21.0965 9.37773 21.9969 11.746 21.9969C14.1143 21.9969 16.4826 21.0965 18.2876 19.2915C20.8821 16.697 21.6633 12.7992 20.3763 9.43588C20.2612 9.13985 20.3434 8.80269 20.5696 8.57655L22.2595 6.8949ZM19.6445 6.60297L18.045 8.2024C17.8189 8.42853 17.7655 8.77802 17.9217 9.05761C18.4233 9.96217 18.7317 10.9449 18.8386 11.9358C18.9373 12.8403 18.3658 13.6955 17.4941 13.9463C16.9801 14.0944 16.3017 14.2013 15.4218 14.2013C12.4738 14.2013 11.1293 11.8124 8.51429 11.8124C7.24379 11.8124 6.26934 12.0961 5.60737 12.388C5.10163 12.6101 4.5589 12.1948 4.64113 11.6438C4.76859 10.8133 5.03996 10.0033 5.46346 9.25086C6.81207 6.84556 9.27083 5.57095 11.7543 5.57095C12.9466 5.57095 14.1472 5.86288 15.2368 6.4714L15.4424 6.58241C15.722 6.73865 16.0715 6.68932 16.3017 6.46318L17.9011 4.86375C18.0615 4.7034 18.3205 4.7034 18.4809 4.86375L19.6445 6.02734C19.8048 6.18358 19.8048 6.44262 19.6445 6.60297Z" fill="url(#paint0_linear_62_652)"/>
</g>
<defs>
<linearGradient id="paint0_linear_62_652" x1="2.50847" y1="11.9868" x2="22.4951" y2="11.9868" gradientUnits="userSpaceOnUse">
<stop stop-color="#8A86FF"/>
<stop offset="0.9952" stop-color="#E13CBD"/>
</linearGradient>
</defs>
</svg>
