<svg width="157" height="40" viewBox="0 0 157 40" fill="none" xmlns="http://www.w3.org/2000/svg">
<g id="osmo-logo 1">
<path id="Vector" d="M44.5068 22.8105C44.5068 17.5422 48.1529 13.7505 53.1626 13.7505C58.1721 13.7505 61.8183 17.5422 61.8183 22.8105C61.8183 28.0787 58.1721 31.8705 53.1626 31.8705C48.1847 31.8705 44.5068 28.0787 44.5068 22.8105ZM58.2038 22.8105C58.2038 19.5221 56.2062 17.039 53.1626 17.039C50.1188 17.039 48.1529 19.5221 48.1529 22.8105C48.1529 26.0654 50.1188 28.5821 53.1626 28.5821C56.2062 28.5485 58.2038 26.0654 58.2038 22.8105Z" fill="white"/>
<path id="Vector_2" d="M63.1807 29.0837L65.0831 26.2315C66.2563 27.5066 68.0635 28.5805 70.3462 28.5805C72.2803 28.5805 73.2315 27.6408 73.2315 26.6342C73.2315 23.5471 63.688 25.6611 63.688 19.0506C63.688 16.1313 66.0659 13.7153 69.9658 13.7153C72.5973 13.7153 74.785 14.5542 76.4338 16.1648L74.468 18.8828C73.1363 17.5742 71.3291 16.9702 69.6488 16.9702C68.1268 16.9702 67.3025 17.6748 67.3025 18.7151C67.3025 21.5001 76.8142 19.6211 76.8142 26.1643C76.8142 29.3857 74.6582 31.8017 70.1877 31.8017C67.0172 31.8688 64.7343 30.728 63.1807 29.0837Z" fill="white"/>
<path id="Vector_3" d="M93.618 31.5657V19.2844L88.9571 31.5657H87.4037L82.743 19.2844V31.5657H79.2236V14.0161H84.1697L88.1963 24.6196L92.2227 14.0161H97.2006V31.5321H93.618V31.5657Z" fill="white"/>
<path id="Vector_4" d="M99.6426 22.809C99.6426 17.5408 103.289 13.749 108.298 13.749C113.308 13.749 116.954 17.5408 116.954 22.809C116.954 28.0773 113.308 31.869 108.298 31.869C103.289 31.869 99.6426 28.0773 99.6426 22.809ZM113.339 22.809C113.339 19.5205 111.342 17.0374 108.298 17.0374C105.254 17.0374 103.289 19.5205 103.289 22.809C103.289 26.0639 105.254 28.5805 108.298 28.5805C111.342 28.547 113.339 26.0639 113.339 22.809Z" fill="white"/>
<path id="Vector_5" d="M118.317 29.0837L120.22 26.2315C121.393 27.5066 123.2 28.5805 125.482 28.5805C127.417 28.5805 128.368 27.6408 128.368 26.6342C128.368 23.5471 118.824 25.6611 118.824 19.0506C118.824 16.1313 121.203 13.7153 125.102 13.7153C127.734 13.7153 129.922 14.5542 131.57 16.1648L129.604 18.8828C128.274 17.5742 126.466 16.9702 124.785 16.9702C123.264 16.9702 122.439 17.6748 122.439 18.7151C122.439 21.5001 131.95 19.6211 131.95 26.1643C131.95 29.3857 129.795 31.8017 125.324 31.8017C122.154 31.8688 119.871 30.728 118.317 29.0837Z" fill="white"/>
<path id="Vector_6" d="M134.328 31.5657V14.0161H137.88V31.5321H134.328V31.5657Z" fill="white"/>
<path id="Vector_7" d="M140.034 29.0837L141.937 26.2315C143.11 27.5066 144.917 28.5805 147.199 28.5805C149.134 28.5805 150.085 27.6408 150.085 26.6342C150.085 23.5471 140.542 25.6611 140.542 19.0506C140.542 16.1313 142.919 13.7153 146.82 13.7153C149.451 13.7153 151.639 14.5542 153.288 16.1648L151.321 18.8828C149.991 17.5742 148.183 16.9702 146.502 16.9702C144.981 16.9702 144.156 17.6748 144.156 18.7151C144.156 21.5001 153.669 19.6211 153.669 26.1643C153.669 29.3857 151.512 31.8017 147.041 31.8017C143.839 31.8688 141.557 30.728 140.034 29.0837Z" fill="white"/>
<path id="Vector_8" d="M38.2568 7.60083C37.8812 6.06991 36.6737 4.53901 34.5004 2.83478C32.7563 1.47716 30.9051 0.697266 29.4293 0.697266C29.1341 0.697266 28.8659 0.726144 28.5976 0.783919C27.9268 0.928348 27.3365 1.44828 26.9609 2.22818C26.5047 3.15251 26.3974 4.39459 26.6926 5.1456C26.7999 5.37669 26.9341 5.66551 27.0951 5.92548C25.6731 6.84983 24.868 7.1098 24.7607 7.1387C28.4635 8.46736 31.549 11.2404 33.4809 14.8511L33.5077 14.5044C33.5882 13.5512 33.8565 12.4535 34.2321 11.327C34.6077 11.4426 34.9834 11.5004 35.359 11.5004C36.3518 11.5004 37.2104 11.0671 37.747 10.2872C38.2837 9.50725 38.4983 8.46736 38.2568 7.60083Z" fill="#5E12A0"/>
<path id="Vector_9" d="M34.3941 10.4897C36.8357 11.2118 37.8284 9.18989 37.5064 7.83223C37.1577 6.47466 36.0308 5.08814 34.0451 3.52833C32.0597 1.96853 30.0475 1.33304 28.7595 1.6219C27.4715 1.91075 27.0959 4.01938 27.418 4.82816C27.5521 5.1459 27.8473 5.60803 28.2497 6.12796C27.74 6.50346 27.257 6.79235 26.8545 7.05231C29.3229 8.23664 31.4695 10.0853 33.0793 12.3962C33.2671 11.6163 33.5355 10.923 33.7769 10.3164C33.9647 10.3453 34.1794 10.403 34.3941 10.4897Z" fill="url(#paint0_radial_62_361)"/>
<path id="Vector_10" d="M20.4145 38.7967C28.6981 38.7967 35.4132 31.5674 35.4132 22.6498C35.4132 13.7322 28.6981 6.50293 20.4145 6.50293C12.1311 6.50293 5.41602 13.7322 5.41602 22.6498C5.41602 31.5674 12.1311 38.7967 20.4145 38.7967Z" fill="url(#paint1_radial_62_361)"/>
<path id="Vector_11" opacity="0.6" d="M36.2723 6.50317C34.2331 4.19232 32.516 3.58573 30.45 3.09468C28.8401 2.69028 29.2694 1.70819 31.2281 1.91038C30.289 1.56376 29.4035 1.47711 28.7596 1.62153C27.4717 1.91038 27.0961 4.01902 27.4181 4.82781C27.5521 5.14553 27.8473 5.60772 28.2498 6.12766C27.5254 6.64761 26.9082 7.02311 26.3984 7.31198C26.64 7.42751 26.9351 7.57186 27.2839 7.77411C28.1962 8.29404 29.1889 9.16058 29.1889 9.16058C27.6864 7.77411 28.0084 7.13863 30.0743 5.57882C30.7182 5.08777 31.8989 5.14553 32.9989 5.75216C34.099 6.35872 35.3869 7.88964 35.3869 7.88964L34.1527 10.4315C34.2331 10.4604 34.3136 10.4893 34.3942 10.5182C35.1722 10.7493 35.7894 10.6915 36.2723 10.4893C36.8358 10.1138 38.3114 8.84289 36.2723 6.50317Z" fill="#A98698"/>
<path id="Vector_12" d="M30.4217 4.48158C30.9583 4.71267 31.6559 5.11707 32.5145 5.7237C33.5341 6.4458 34.4195 7.25462 34.9829 7.89008C34.0439 9.21875 33.4267 11.0385 33.0511 12.3095C33.2389 12.5984 33.4536 12.8873 33.6414 13.1762C33.8292 12.4539 34.1513 11.3851 34.5805 10.3164C34.6879 10.3453 34.822 10.3453 34.9561 10.3453C35.2781 10.3453 35.6537 10.2875 35.9489 10.0276C36.1636 9.85422 36.405 9.53653 36.3781 8.95878C36.3781 8.41002 35.9757 7.71675 35.1441 6.87911C34.5537 6.27246 33.7487 5.60807 32.9439 5.00153C30.6364 3.35506 29.0265 2.8929 28.302 3.6728C27.8191 4.19275 27.8728 4.82822 28.0337 5.29038C27.1751 5.89695 26.4507 6.33027 25.9678 6.61915C26.2897 6.73467 26.5849 6.87911 26.9069 7.02346C27.7654 6.53242 28.9997 5.6948 30.4217 4.48158ZM35.4928 8.61218C35.5733 8.75662 35.6001 8.90106 35.6001 8.98768C35.6001 9.24766 35.5195 9.33428 35.466 9.3921C35.3586 9.47872 35.1439 9.53653 34.9561 9.53653C35.1172 9.18993 35.305 8.90106 35.4928 8.61218ZM28.8655 4.30828C28.9459 4.22163 29.1606 4.16385 29.5095 4.22162C29.2411 4.45271 28.9728 4.65491 28.7045 4.8571C28.6777 4.65491 28.7045 4.45271 28.8655 4.30828Z" fill="#5E12A0"/>
<path id="Vector_13" d="M20.4144 5.55029C11.6405 5.55029 4.53027 13.2049 4.53027 22.6504C4.53027 32.0959 11.6405 39.7505 20.4144 39.7505C29.1881 39.7505 36.2983 32.0959 36.2983 22.6504C36.2983 13.2049 29.1612 5.55029 20.4144 5.55029ZM20.4144 38.7973C12.1235 38.7973 5.41571 31.576 5.41571 22.6504C5.41571 13.7249 12.1235 6.50354 20.4144 6.50354C28.7051 6.50354 35.4129 13.7249 35.4129 22.6504C35.4129 31.576 28.6783 38.7973 20.4144 38.7973Z" fill="#5E12A0"/>
<path id="Vector_14" opacity="0.6" d="M20.4145 38.7967C28.6981 38.7967 35.4132 31.5674 35.4132 22.6498C35.4132 13.7322 28.6981 6.50293 20.4145 6.50293C12.1311 6.50293 5.41602 13.7322 5.41602 22.6498C5.41602 31.5674 12.1311 38.7967 20.4145 38.7967Z" fill="url(#paint2_linear_62_361)"/>
<path id="Vector_15" opacity="0.6" d="M20.3073 36.833C12.1238 35.4176 6.5697 27.1276 7.91123 18.3175C8.50155 14.4181 10.326 11.0963 12.9019 8.69873C9.14547 11.0385 6.35506 15.1113 5.60379 20.0796C4.28905 28.8896 9.84308 37.1798 17.9998 38.5951C22.561 39.4039 26.9613 37.8729 30.2079 34.8688C27.337 36.6598 23.849 37.4396 20.3073 36.833Z" fill="#A98698"/>
<path id="Vector_16" opacity="0.6" d="M22.8031 6.73429C19.02 6.06991 15.3441 6.99426 12.3391 9.04512C12.2854 9.10293 12.2318 9.16064 12.2318 9.16064C13.3855 8.40964 15.0759 7.74527 15.0759 7.74527C10.7292 10.4605 9.3877 13.5513 9.3877 13.5513C11.0781 10.0273 16.0418 7.54311 19.9322 7.36976C23.8228 7.19651 26.3718 8.43854 29.4841 11.1249C32.5965 13.8402 34.4748 19.3862 34.2868 23.7767C34.1259 28.1672 31.9795 31.7202 31.9795 31.7202C33.4551 29.6693 34.3406 28.1672 34.9041 26.6363C35.0114 26.1742 35.1187 25.712 35.1724 25.2209C36.5139 16.4398 30.9866 8.14967 22.8031 6.73429Z" fill="url(#paint3_linear_62_361)"/>
<path id="Vector_17" d="M34.662 22.5059C34.662 30.9692 28.2762 37.844 20.4148 37.844C12.5533 37.844 6.14062 30.9692 6.14062 22.5059H34.662Z" fill="url(#paint4_linear_62_361)"/>
<g id="Group" opacity="0.6">
<path id="Vector_18" opacity="0.6" d="M33.5354 22.5059C33.5354 30.767 27.4717 37.5261 19.8516 37.844C20.0395 37.844 20.2273 37.844 20.415 37.844C28.2765 37.844 34.6623 30.9692 34.6623 22.5059H33.5354Z" fill="url(#paint5_linear_62_361)"/>
</g>
<g id="Group_2" opacity="0.7">
<path id="Vector_19" opacity="0.7" d="M8.15296 22.5059H6.14062C6.14062 30.9692 12.5265 37.844 20.3879 37.844C20.7368 37.844 21.0587 37.844 21.3807 37.815C14.0021 37.2374 8.15296 30.5937 8.15296 22.5059Z" fill="url(#paint6_linear_62_361)"/>
</g>
<path id="Vector_20" d="M34.6353 22.6497C34.6353 20.8879 31.7912 19.8769 28.0079 19.5302C25.2712 19.2991 22.5076 19.588 19.3415 20.6279C16.6047 21.4944 14.1363 21.35 12.3386 21.1189C8.34074 20.6279 6.14062 20.57 6.14062 22.6497C6.14062 25.6539 11.8288 29.409 20.361 28.1091C24.6809 27.4447 26.9079 26.0872 29.4568 25.1629C32.2204 24.1807 34.6353 24.2096 34.6353 22.6497Z" fill="url(#paint7_linear_62_361)"/>
<path id="Vector_21" d="M25.0827 15.3712C26.4164 15.3712 27.4975 14.2073 27.4975 12.7716C27.4975 11.3358 26.4164 10.1719 25.0827 10.1719C23.749 10.1719 22.668 11.3358 22.668 12.7716C22.668 14.2073 23.749 15.3712 25.0827 15.3712Z" fill="white"/>
<path id="Vector_22" d="M29.0265 17.3066C29.5896 17.3066 30.046 16.8152 30.046 16.209C30.046 15.6027 29.5896 15.1113 29.0265 15.1113C28.4633 15.1113 28.0068 15.6027 28.0068 16.209C28.0068 16.8152 28.4633 17.3066 29.0265 17.3066Z" fill="white"/>
<g id="Group_3" opacity="0.6">
<path id="Vector_23" opacity="0.6" d="M32.6762 10.6912C32.6495 10.6912 32.6226 10.6912 32.6226 10.6912C32.4616 10.6622 32.3543 10.489 32.381 10.2867C32.6226 8.95808 33.6421 7.68705 33.6958 7.62933C33.803 7.4849 34.0177 7.4849 34.1251 7.60042C34.2593 7.71596 34.2593 7.94702 34.1519 8.06265C34.1251 8.09146 33.186 9.27577 32.9714 10.4312C32.9446 10.6045 32.8104 10.6912 32.6762 10.6912Z" fill="url(#paint8_linear_62_361)"/>
</g>
<path id="Vector_24" opacity="0.2" d="M19.4242 34.6953C19.839 34.6953 20.1754 34.3331 20.1754 33.8865C20.1754 33.4398 19.839 33.0776 19.4242 33.0776C19.0092 33.0776 18.6729 33.4398 18.6729 33.8865C18.6729 34.3331 19.0092 34.6953 19.4242 34.6953Z" fill="white"/>
<g id="Group_4" opacity="0.4">
<path id="Vector_25" opacity="0.6" d="M18.9927 34.4072C18.6977 34.0894 18.6977 33.5695 18.9927 33.2518C19.0464 33.194 19.1 33.1652 19.1537 33.1074C19.0464 33.1363 18.9659 33.194 18.8855 33.2807C18.5903 33.5984 18.5903 34.1183 18.8855 34.4362C19.1269 34.696 19.5025 34.7538 19.7977 34.5805C19.5294 34.696 19.2074 34.6383 18.9927 34.4072Z" fill="url(#paint9_linear_62_361)"/>
</g>
<path id="Vector_26" opacity="0.3" d="M19.6892 33.6552C19.7782 33.6552 19.8504 33.5777 19.8504 33.482C19.8504 33.3862 19.7782 33.3086 19.6892 33.3086C19.6003 33.3086 19.5283 33.3862 19.5283 33.482C19.5283 33.5777 19.6003 33.6552 19.6892 33.6552Z" fill="white"/>
<path id="Vector_27" opacity="0.2" d="M23.341 34.2913C23.756 34.2913 24.0924 33.9293 24.0924 33.4827C24.0924 33.036 23.756 32.6738 23.341 32.6738C22.9262 32.6738 22.5898 33.036 22.5898 33.4827C22.5898 33.9293 22.9262 34.2913 23.341 34.2913Z" fill="white"/>
<g id="Group_5" opacity="0.4">
<path id="Vector_28" opacity="0.6" d="M22.9107 34.0029C22.6155 33.6851 22.6155 33.1653 22.9107 32.8475C22.9644 32.7898 23.018 32.7609 23.0716 32.7031C22.9644 32.732 22.884 32.7898 22.8034 32.8764C22.5082 33.1941 22.5082 33.714 22.8034 34.0319C23.0449 34.2918 23.4206 34.3495 23.7156 34.1763C23.4474 34.2918 23.1254 34.234 22.9107 34.0029Z" fill="url(#paint10_linear_62_361)"/>
</g>
<path id="Vector_29" opacity="0.3" d="M23.6083 33.251C23.6972 33.251 23.7692 33.1734 23.7692 33.0777C23.7692 32.9819 23.6972 32.9043 23.6083 32.9043C23.5194 32.9043 23.4473 32.9819 23.4473 33.0777C23.4473 33.1734 23.5194 33.251 23.6083 33.251Z" fill="white"/>
<path id="Vector_30" opacity="0.2" d="M21.4073 36.1683C21.7184 36.1683 21.9707 35.8968 21.9707 35.5617C21.9707 35.2267 21.7184 34.9551 21.4073 34.9551C21.096 34.9551 20.8438 35.2267 20.8438 35.5617C20.8438 35.8968 21.096 36.1683 21.4073 36.1683Z" fill="white"/>
<g id="Group_6" opacity="0.4">
<path id="Vector_31" opacity="0.6" d="M21.0852 35.9381C20.8705 35.7071 20.8705 35.3027 21.0852 35.0716C21.1121 35.0427 21.1657 35.0139 21.1925 34.9849C21.1121 35.0139 21.0583 35.0716 21.0047 35.1294C20.7901 35.3604 20.7901 35.7649 21.0047 35.9959C21.1925 36.1981 21.4608 36.227 21.7023 36.0826C21.4877 36.1692 21.2462 36.1115 21.0852 35.9381Z" fill="url(#paint11_linear_62_361)"/>
</g>
<path id="Vector_32" opacity="0.3" d="M21.5947 35.36C21.6539 35.36 21.702 35.3083 21.702 35.2445C21.702 35.1807 21.6539 35.1289 21.5947 35.1289C21.5354 35.1289 21.4873 35.1807 21.4873 35.2445C21.4873 35.3083 21.5354 35.36 21.5947 35.36Z" fill="white"/>
<path id="Vector_33" opacity="0.2" d="M24.8691 35.7351C25.1802 35.7351 25.4325 35.4635 25.4325 35.1285C25.4325 34.7935 25.1802 34.522 24.8691 34.522C24.5579 34.522 24.3057 34.7935 24.3057 35.1285C24.3057 35.4635 24.5579 35.7351 24.8691 35.7351Z" fill="white"/>
<g id="Group_7" opacity="0.4">
<path id="Vector_34" opacity="0.6" d="M24.5472 35.505C24.3325 35.2739 24.3325 34.8695 24.5472 34.6384C24.574 34.6095 24.6277 34.5806 24.6545 34.5518C24.574 34.5806 24.5203 34.6384 24.4667 34.6963C24.252 34.9273 24.252 35.3316 24.4667 35.5628C24.6545 35.765 24.9228 35.7938 25.1644 35.6494C24.9497 35.7361 24.7081 35.6783 24.5472 35.505Z" fill="url(#paint12_linear_62_361)"/>
</g>
<path id="Vector_35" opacity="0.3" d="M25.0575 34.9269C25.1168 34.9269 25.1649 34.8752 25.1649 34.8113C25.1649 34.7476 25.1168 34.6958 25.0575 34.6958C24.9982 34.6958 24.9502 34.7476 24.9502 34.8113C24.9502 34.8752 24.9982 34.9269 25.0575 34.9269Z" fill="white"/>
<path id="Vector_36" opacity="0.2" d="M16.2283 34.4062C16.9101 34.4062 17.4625 33.8112 17.4625 33.0774C17.4625 32.3435 16.9101 31.7485 16.2283 31.7485C15.5466 31.7485 14.9941 32.3435 14.9941 33.0774C14.9941 33.8112 15.5466 34.4062 16.2283 34.4062Z" fill="white"/>
<g id="Group_8" opacity="0.4">
<path id="Vector_37" opacity="0.6" d="M15.532 33.9157C15.049 33.3957 15.049 32.5581 15.532 32.0381C15.6124 31.9514 15.6929 31.8936 15.8003 31.8359C15.6393 31.8936 15.5051 32.0092 15.3709 32.1248C14.8881 32.6447 14.8881 33.4823 15.3709 34.0023C15.7735 34.4356 16.3906 34.5222 16.8736 34.2044C16.4175 34.4067 15.8808 34.3201 15.532 33.9157Z" fill="url(#paint13_linear_62_361)"/>
</g>
<path id="Vector_38" opacity="0.3" d="M16.6578 32.6733C16.806 32.6733 16.9263 32.5441 16.9263 32.3846C16.9263 32.225 16.806 32.0957 16.6578 32.0957C16.5098 32.0957 16.3896 32.225 16.3896 32.3846C16.3896 32.5441 16.5098 32.6733 16.6578 32.6733Z" fill="white"/>
<path id="Vector_39" opacity="0.2" d="M27.2567 31.1429C27.9383 31.1429 28.491 30.548 28.491 29.8141C28.491 29.0802 27.9383 28.4854 27.2567 28.4854C26.5751 28.4854 26.0225 29.0802 26.0225 29.8141C26.0225 30.548 26.5751 31.1429 27.2567 31.1429Z" fill="white"/>
<g id="Group_9" opacity="0.4">
<path id="Vector_40" opacity="0.6" d="M26.532 30.6517C26.049 30.1317 26.049 29.294 26.532 28.774C26.6124 28.6874 26.6929 28.6297 26.8003 28.5718C26.6394 28.6297 26.5051 28.7452 26.3709 28.8607C25.8881 29.3807 25.8881 30.2184 26.3709 30.7383C26.7734 31.1715 27.3906 31.2583 27.8736 30.9405C27.4175 31.1427 26.9076 31.056 26.532 30.6517Z" fill="url(#paint14_linear_62_361)"/>
</g>
<path id="Vector_41" opacity="0.3" d="M27.6854 29.4093C27.8336 29.4093 27.9536 29.2799 27.9536 29.1204C27.9536 28.9608 27.8336 28.8315 27.6854 28.8315C27.5371 28.8315 27.417 28.9608 27.417 29.1204C27.417 29.2799 27.5371 29.4093 27.6854 29.4093Z" fill="white"/>
</g>
<defs>
<radialGradient id="paint0_radial_62_361" cx="0" cy="0" r="1" gradientUnits="userSpaceOnUse" gradientTransform="translate(37.0171 6.01244) scale(11.992 12.9101)">
<stop stop-color="#FFEAFF" stop-opacity="0.6"/>
<stop offset="0.6807" stop-color="#A087C9"/>
<stop offset="1" stop-color="#10002F"/>
</radialGradient>
<radialGradient id="paint1_radial_62_361" cx="0" cy="0" r="1" gradientUnits="userSpaceOnUse" gradientTransform="translate(30.3449 11.5178) scale(29.3401 31.5864)">
<stop stop-color="#FFEAFF" stop-opacity="0.6"/>
<stop offset="0.6807" stop-color="#A087C9"/>
<stop offset="1" stop-color="#10002F"/>
</radialGradient>
<linearGradient id="paint2_linear_62_361" x1="18.0087" y1="38.5677" x2="23.5462" y2="6.83437" gradientUnits="userSpaceOnUse">
<stop stop-color="#81FFFF"/>
<stop offset="0.6202" stop-color="white" stop-opacity="0"/>
</linearGradient>
<linearGradient id="paint3_linear_62_361" x1="30.9853" y1="11.6843" x2="17.7533" y2="22.9617" gradientUnits="userSpaceOnUse">
<stop offset="0.2888" stop-color="white"/>
<stop offset="0.7796" stop-color="white" stop-opacity="0"/>
</linearGradient>
<linearGradient id="paint4_linear_62_361" x1="6.15269" y1="30.166" x2="34.6552" y2="30.166" gradientUnits="userSpaceOnUse">
<stop stop-color="#0002E9"/>
<stop offset="0.9952" stop-color="#FF00C7"/>
</linearGradient>
<linearGradient id="paint5_linear_62_361" x1="36.0048" y1="23.8517" x2="19.4174" y2="38.4127" gradientUnits="userSpaceOnUse">
<stop offset="0.2888" stop-color="white"/>
<stop offset="0.7796" stop-color="white" stop-opacity="0"/>
</linearGradient>
<linearGradient id="paint6_linear_62_361" x1="6.15268" y1="30.166" x2="21.4013" y2="30.166" gradientUnits="userSpaceOnUse">
<stop stop-color="#000292"/>
<stop offset="0.9952" stop-color="#7D00C7"/>
</linearGradient>
<linearGradient id="paint7_linear_62_361" x1="6.17183" y1="23.924" x2="34.636" y2="23.924" gradientUnits="userSpaceOnUse">
<stop stop-color="#000292"/>
<stop offset="0.9952" stop-color="#BE00C7"/>
</linearGradient>
<linearGradient id="paint8_linear_62_361" x1="34.1687" y1="7.48862" x2="31.8969" y2="10.9178" gradientUnits="userSpaceOnUse">
<stop offset="0.2888" stop-color="white"/>
<stop offset="0.7796" stop-color="white" stop-opacity="0"/>
</linearGradient>
<linearGradient id="paint9_linear_62_361" x1="18.6633" y1="33.912" x2="19.7985" y2="33.912" gradientUnits="userSpaceOnUse">
<stop offset="0.2888" stop-color="white"/>
<stop offset="0.7796" stop-color="white" stop-opacity="0"/>
</linearGradient>
<linearGradient id="paint10_linear_62_361" x1="22.5786" y1="33.5023" x2="23.7138" y2="33.5023" gradientUnits="userSpaceOnUse">
<stop offset="0.2888" stop-color="white"/>
<stop offset="0.7796" stop-color="white" stop-opacity="0"/>
</linearGradient>
<linearGradient id="paint11_linear_62_361" x1="20.8403" y1="35.5696" x2="21.6925" y2="35.5696" gradientUnits="userSpaceOnUse">
<stop offset="0.2888" stop-color="white"/>
<stop offset="0.7796" stop-color="white" stop-opacity="0"/>
</linearGradient>
<linearGradient id="paint12_linear_62_361" x1="24.2906" y1="35.1353" x2="25.1428" y2="35.1353" gradientUnits="userSpaceOnUse">
<stop offset="0.2888" stop-color="white"/>
<stop offset="0.7796" stop-color="white" stop-opacity="0"/>
</linearGradient>
<linearGradient id="paint13_linear_62_361" x1="14.9965" y1="33.1118" x2="16.8503" y2="33.1118" gradientUnits="userSpaceOnUse">
<stop offset="0.2888" stop-color="white"/>
<stop offset="0.7796" stop-color="white" stop-opacity="0"/>
</linearGradient>
<linearGradient id="paint14_linear_62_361" x1="26.0067" y1="29.8468" x2="27.8606" y2="29.8468" gradientUnits="userSpaceOnUse">
<stop offset="0.2888" stop-color="white"/>
<stop offset="0.7796" stop-color="white" stop-opacity="0"/>
</linearGradient>
</defs>
</svg>
